{"title":"Bea Miller - Fire N Gold (2015.Pop)","uid":12466983,"size":75417104,"categoryP":"video","categoryS":"music_videos","magnet":"?xt=urn:btih:5dcafaaafd5aa6a04c68e700d03ac2d9c7595e12&amp;dn=Bea+Miller+-+Fire+N+Gold+%282015.Pop%29&amp;tr=udp%3A%2F%2Ftracker.openbittorrent.com%3A80&amp;tr=udp%3A%2F%2Fopen.demonii.com%3A1337&amp;tr=udp%3A%2F%2Ftracker.coppersurfer.tk%3A6969&amp;tr=udp%3A%2F%2Fexodus.desync.com%3A6969","seeders":6,"leechers":3,"uploader":"MeRaDil","files":1,"time":1442866574,"description":"BEA MILLER - FIRE N GOLD\n\n &lt;a href=&quot;\nhttp://ultraimg.com/images/fire-1.png&quot; rel=&quot;nofollow&quot; target=&quot;_NEW&quot;&gt;\nhttp://ultraimg.com/images/fire-1.png&lt;/a&gt;\n &lt;a href=&quot;\nhttp://ultraimg.com/images/fire-2.png&quot; rel=&quot;nofollow&quot; target=&quot;_NEW&quot;&gt;\nhttp://ultraimg.com/images/fire-2.png&lt;/a&gt;\n &lt;a href=&quot;\nhttp://ultraimg.com/images/fire-3.png&quot; rel=&quot;nofollow&quot; target=&quot;_NEW&quot;&gt;\nhttp://ultraimg.com/images/fire-3.png&lt;/a&gt;\n\n\nMEDIA INFO\nGeneral\nBea Miller - Fire N Gold\nFormat                                   : MPEG-4\nFormat profile                           : Base Media\nCodec ID                                 : isom\nFile size                                : 71.9 MiB\nDuration                                 : 3mn 41s\nOverall bit rate                         : 2 728 Kbps\nMusicVid name                            : Fire N Gold\nAlbum                                    : Not An Apology\nPerformer                                : Bea Miller\nGenre                                    : Pop\nContentType                              : Music Video\nRecorded date                            : 2015\nRating                                   : ***\nMake                                     : MeRaDil\nArtist url                               : http://beamiller.com/\nRelease date                             : USA . may 20 . 2015\n\nVideo\nID                                       : 1\nFormat                                   : AVC\nFormat/Info                              : Advanced Video Codec\nFormat profile                           : &lt;a class=&quot;__cf_email__&quot; href=&quot;/cdn-cgi/l/email-protection&quot; data-cfemail=&quot;f5bd9c929db5b9c1dbc5&quot;&gt;[email&amp;#160;protected]&lt;/a&gt;&lt;script data-cfhash='f9e31' type=&quot;text/javascript&quot;&gt;\n/* &lt;![CDATA[ */!function(){try{var t=&quot;currentScript&quot;in document?document.currentScript:function(){for(var t=document.getElementsByTagName(&quot;script&quot;),e=t.length;e--;)if(t[e].getAttribute(&quot;data-cfhash&quot;))return t[e]}();if(t&amp;&amp;t.previousSibling){var e,r,n,i,c=t.previousSibling,a=c.getAttribute(&quot;data-cfemail&quot;);if(a){for(e=&quot;&quot;,r=parseInt(a.substr(0,2),16),n=2;a.length-n;n+=2)i=parseInt(a.substr(n,2),16)^r,e+=String.fromCharCode(i);e=document.createTextNode(e),c.parentNode.replaceChild(e,c)}t.parentNode.removeChild(t);}}catch(u){}}()/* ]]&gt; */&lt;/script&gt;\nFormat settings, CABAC                   : Yes\nFormat settings, ReFrames                : 3 frames\nCodec ID                                 : avc1\nCodec ID/Info                            : Advanced Video Coding\nDuration                                 : 3mn 41s\nBit rate                                 : 2 464 Kbps\nWidth                                    : 1 920 pixels\nHeight                                   : 1 080 pixels\nDisplay aspect ratio                     : 16:9\nFrame rate mode                          : Variable\nFrame rate                               : 23.976 fps\nMinimum frame rate                       : 23.974 fps\nMaximum frame rate                       : 23.981 fps\nColor space                              : YUV\nChroma subsampling                       : 4:2:0\nBit depth                                : 8 bits\nScan type                                : Progressive\nBits/(Pixel*Frame)                       : 0.050\nStream size                              : 65.0 MiB (90%)\n\nAudio\nID                                       : 2\nFormat                                   : AAC\nFormat/Info                              : Advanced Audio Codec\nFormat profile                           : LC\nCodec ID                                 : 40\nDuration                                 : 3mn 41s\nBit rate mode                            : Constant\nBit rate                                 : 256 Kbps\nChannel(s)                               : 2 channels\nChannel positions                        : Front: L R\nSampling rate                            : 44.1 KHz\nCompression mode                         : Lossy\nStream size                              : 6.75 MiB (9%)\n\nBea Miller * Not An Apology * Promo","torrent":{"xt":"urn:btih:5dcafaaafd5aa6a04c68e700d03ac2d9c7595e12","amp;dn":"Bea+Miller+-+Fire+N+Gold+%282015.Pop%29","amp;tr":["udp%3A%2F%2Ftracker.openbittorrent.com%3A80","udp%3A%2F%2Fopen.demonii.com%3A1337","udp%3A%2F%2Ftracker.coppersurfer.tk%3A6969","udp%3A%2F%2Fexodus.desync.com%3A6969"],"infoHash":"5dcafaaafd5aa6a04c68e700d03ac2d9c7595e12","infoHashBuffer":{"type":"Buffer","data":[93,202,250,170,253,90,166,160,76,104,231,0,208,58,194,217,199,89,94,18]},"announce":[],"urlList":[]}}